<?xml version="1.0" encoding="utf-8"?>
<!DOCTYPE svg PUBLIC "-//W3C//DTD SVG 20010904//EN" "http://www.w3.org/TR/2001/REC-SVG-20010904/DTD/svg10.dtd">
<svg version="1.0" xmlns="http://www.w3.org/2000/svg" width="512pt" height="512pt" viewBox="0 0 512 512" style="" preserveAspectRatio="xMidYMid meet">
<g fill="#518EF8FF" stroke="#518EF8FF">
<path d="M 261.000 258.993 L 261.000 309.986 329.513 310.243 L 398.026 310.500 392.584 321.500 C 380.112 346.706 362.368 367.246 340.326 381.988 L 332.974 386.905 373.975 420.479 C 396.525 438.945 415.600 454.293 416.364 454.586 C 418.228 455.301 427.216 447.633 440.038 434.387 C 477.169 396.030 499.365 352.027 509.089 297.500 C 512.129 280.453 512.878 244.780 510.588 226.063 C 509.684 218.673 508.683 211.585 508.364 210.313 L 507.783 208.000 384.392 208.000 L 261.000 208.000 261.000 258.993 "/></g>
<g fill="#F14336FF" stroke="#F14336FF">
<path d="M 231.000 0.679 C 153.028 8.671 82.861 51.398 40.793 116.500 C 37.239 122.000 32.965 128.978 31.295 132.006 L 28.258 137.512 70.504 172.145 L 112.750 206.779 113.954 202.759 C 115.644 197.117 124.613 179.832 130.173 171.500 C 160.287 126.371 214.828 100.109 268.383 104.951 C 289.663 106.874 307.659 112.109 326.145 121.752 L 336.789 127.305 378.347 93.403 C 401.204 74.756 419.927 59.237 419.953 58.915 C 420.023 58.051 403.781 46.093 394.000 39.808 C 362.169 19.353 326.982 6.697 287.585 1.532 C 276.911 0.133 241.531 -0.401 231.000 0.679 "/></g>
<g fill="#28B446FF" stroke="#28B446FF">
<path d="M 72.949 343.072 C 50.702 361.262 32.077 376.558 31.560 377.062 C 30.208 378.382 32.915 383.562 42.504 398.000 C 84.736 461.590 153.697 503.222 229.821 511.086 C 246.651 512.824 282.352 511.775 297.500 509.097 C 329.479 503.444 357.007 493.702 382.735 478.932 C 396.674 470.930 417.123 456.668 415.985 455.742 C 415.718 455.524 396.780 440.042 373.901 421.337 L 332.301 387.328 323.426 391.788 C 299.369 403.876 269.834 409.469 243.060 407.005 C 188.795 402.013 143.437 370.568 119.358 321.250 C 116.337 315.063 113.760 310.000 113.632 310.000 C 113.503 310.000 95.196 324.883 72.949 343.072 "/></g>
<g fill="#FBBB00FF" stroke="#FBBB00FF">
<path d="M 22.651 149.320 C 5.584 187.554 -0.662 219.090 0.269 262.331 C 0.968 294.812 5.046 317.039 15.431 344.966 C 20.654 359.009 29.026 377.165 30.103 376.781 C 30.536 376.626 49.525 361.259 72.301 342.632 L 113.712 308.763 111.448 301.632 C 103.078 275.272 102.218 246.190 109.011 219.291 C 110.620 212.920 111.693 207.312 111.395 206.830 C 110.432 205.273 29.121 139.000 28.173 139.000 C 27.669 139.000 25.184 143.644 22.651 149.320 "/></g>
</svg>
