<?xml version="1.0" encoding="utf-8"?>
<!DOCTYPE svg PUBLIC "-//W3C//DTD SVG 20010904//EN" "http://www.w3.org/TR/2001/REC-SVG-20010904/DTD/svg10.dtd">
<svg version="1.0" xmlns="http://www.w3.org/2000/svg" width="600pt" height="600pt" viewBox="0 0 600 600" style="" preserveAspectRatio="xMidYMid meet">
<g fill="#371D1EFF" stroke="#371D1EFF">
<path d="M 277.000 113.948 C 265.632 114.915 250.639 117.336 239.000 120.084 C 228.302 122.610 206.216 129.485 202.392 131.480 C 200.801 132.309 199.189 132.990 198.808 132.994 C 195.635 133.022 168.079 148.038 157.213 155.661 C 117.116 183.789 92.520 220.701 85.453 263.354 C 83.485 275.238 83.924 298.198 86.358 310.576 C 95.428 356.717 129.081 398.979 177.500 425.036 C 181.900 427.404 185.637 429.439 185.803 429.557 C 185.970 429.676 181.785 445.858 176.502 465.517 C 169.952 489.896 166.994 502.571 167.199 505.381 C 167.491 509.374 167.617 509.510 171.336 509.815 C 174.789 510.099 176.832 509.010 191.836 498.883 C 215.873 482.660 243.579 463.781 254.224 456.373 C 259.855 452.454 260.044 452.403 265.724 453.241 C 268.901 453.710 281.868 454.343 294.541 454.649 C 314.438 455.129 319.804 454.915 333.865 453.079 C 342.821 451.909 352.252 450.449 354.824 449.833 C 373.995 445.244 386.211 441.641 393.651 438.381 C 395.384 437.621 397.096 437.000 397.456 437.000 C 397.816 437.000 400.223 436.056 402.805 434.902 C 426.416 424.354 445.644 412.220 462.500 397.231 C 490.675 372.175 508.336 341.335 514.549 306.339 C 516.520 295.234 516.081 268.699 513.731 256.893 C 500.989 192.891 439.954 138.045 361.500 120.098 C 352.360 118.007 344.711 116.628 333.000 114.962 C 323.697 113.637 288.201 112.995 277.000 113.948 M 264.537 235.154 C 266.421 236.266 268.470 238.848 269.763 241.741 C 273.695 250.536 301.000 324.628 301.000 326.503 C 301.000 328.884 296.037 333.833 292.467 335.011 C 289.843 335.877 288.130 335.868 285.420 334.974 C 281.472 333.671 279.369 329.970 277.052 320.250 L 275.801 315.000 255.482 315.000 L 235.163 315.000 233.006 321.750 C 229.481 332.778 228.955 333.776 226.035 334.985 C 222.178 336.583 216.183 334.844 212.579 331.083 C 209.119 327.471 209.265 326.302 214.954 312.000 C 217.251 306.225 223.653 289.125 229.180 274.000 C 241.153 241.236 243.061 236.845 246.229 234.770 C 250.919 231.696 258.962 231.865 264.537 235.154 M 395.750 235.657 C 397.895 237.997 398.000 238.888 398.000 254.796 L 398.000 271.481 417.259 252.240 C 437.731 231.789 438.779 231.108 443.747 235.016 C 447.324 237.829 451.000 243.028 451.000 245.273 C 451.000 246.334 444.553 253.927 436.250 262.645 C 428.138 271.163 421.547 278.684 421.604 279.357 C 421.661 280.031 428.358 289.327 436.485 300.014 C 454.359 323.520 453.447 322.083 452.610 325.418 C 451.107 331.405 440.847 337.601 436.397 335.208 C 435.354 334.646 427.975 325.167 420.000 314.143 C 412.025 303.119 405.022 294.077 404.437 294.050 C 403.852 294.022 402.165 295.262 400.687 296.805 C 398.013 299.596 398.000 299.682 398.000 314.749 C 398.000 329.255 397.900 330.004 395.618 332.657 C 393.526 335.090 392.520 335.430 387.328 335.463 C 383.306 335.488 380.554 334.934 378.710 333.727 L 376.000 331.954 376.000 284.632 C 376.000 238.910 376.066 237.250 377.959 235.537 C 382.344 231.569 392.063 231.634 395.750 235.657 M 224.083 235.766 C 228.437 240.640 227.840 247.010 222.633 251.228 C 220.855 252.668 218.292 252.959 207.250 252.978 L 194.000 253.000 194.000 291.845 C 194.000 328.564 193.897 330.783 192.124 332.388 C 188.124 336.007 177.612 335.646 173.996 331.765 C 172.073 329.702 172.000 328.215 172.000 291.311 L 172.000 253.000 160.968 253.000 C 147.540 253.000 143.603 251.688 141.430 246.488 C 139.603 242.114 140.741 236.826 144.147 233.873 C 146.321 231.987 147.858 231.922 183.788 232.205 L 221.166 232.500 224.083 235.766 M 324.205 233.040 C 326.242 233.606 328.829 235.239 329.955 236.669 C 331.932 239.184 332.000 240.507 332.000 276.635 L 332.000 314.000 346.953 314.000 C 362.965 314.000 366.084 314.694 367.890 318.657 C 370.113 323.536 368.860 332.058 365.600 334.235 C 364.995 334.639 352.943 334.976 338.818 334.985 L 313.136 335.000 311.068 332.096 C 309.051 329.263 309.000 328.082 309.000 284.173 L 309.000 239.154 312.008 236.145 C 313.663 234.491 316.026 232.942 317.258 232.705 C 318.491 232.467 319.725 232.214 320.000 232.142 C 320.275 232.070 322.167 232.474 324.205 233.040 "/></g>
<g fill="#371D1EFF" stroke="#371D1EFF">
<path d="M 255.000 257.282 C 255.000 257.438 252.712 264.075 249.915 272.032 C 245.478 284.655 242.045 294.957 242.011 295.750 C 242.005 295.888 248.123 296.000 255.607 296.000 C 268.167 296.000 269.160 295.865 268.512 294.250 C 268.127 293.288 267.192 290.475 266.435 288.000 C 261.199 270.874 256.427 257.000 255.773 257.000 C 255.348 257.000 255.000 257.127 255.000 257.282 "/></g>
</svg>
