<?xml version="1.0" encoding="utf-8"?>
<!DOCTYPE svg PUBLIC "-//W3C//DTD SVG 20010904//EN" "http://www.w3.org/TR/2001/REC-SVG-20010904/DTD/svg10.dtd">
<svg version="1.0" xmlns="http://www.w3.org/2000/svg" width="354pt" height="354pt" viewBox="0 0 354 354" style="" preserveAspectRatio="xMidYMid meet">
<g fill="#FCC572FF" stroke="#FCC572FF">
<path d="M 149.928 1.482 C 75.514 13.502 17.808 69.072 2.796 143.166 C 0.778 153.130 0.505 157.340 0.542 178.000 C 0.579 198.555 0.868 202.816 2.849 212.000 C 18.267 283.491 71.984 336.782 143.166 351.204 C 153.130 353.222 157.340 353.495 178.000 353.458 C 198.555 353.421 202.816 353.132 212.000 351.151 C 283.491 335.733 336.782 282.016 351.204 210.834 C 353.222 200.870 353.495 196.660 353.458 176.000 C 353.421 155.445 353.132 151.184 351.151 142.000 C 335.782 70.735 282.131 17.344 211.379 2.901 C 197.531 0.075 163.505 -0.711 149.928 1.482 M 244.298 52.351 C 248.700 54.190 253.757 60.190 254.574 64.541 C 255.027 66.958 251.922 90.491 245.039 136.813 C 239.425 174.591 234.379 207.651 233.826 210.279 C 232.108 218.455 225.573 224.034 217.782 223.975 C 215.934 223.962 205.325 220.054 193.500 215.032 C 172.841 206.258 172.477 206.146 171.058 208.162 C 162.127 220.852 154.427 230.389 151.763 232.062 C 147.359 234.827 138.725 234.365 134.170 231.121 C 128.254 226.909 127.575 224.388 127.011 204.561 L 126.500 186.622 105.000 177.348 C 82.115 167.476 79.869 165.940 77.965 158.871 C 76.301 152.691 77.617 147.308 81.865 142.925 C 85.456 139.219 228.688 53.547 233.986 51.936 C 237.860 50.758 240.765 50.875 244.298 52.351 M 144.750 257.962 C 148.617 265.631 147.413 278.572 142.307 284.213 C 141.185 285.453 139.230 286.000 135.918 286.000 C 130.551 286.000 128.100 283.863 125.933 277.296 C 124.163 271.935 125.240 260.966 127.969 256.550 C 130.204 252.934 130.259 252.912 136.359 253.205 L 142.500 253.500 144.750 257.962 M 119.411 256.077 C 122.838 260.149 122.928 265.809 119.628 269.646 L 117.256 272.403 119.569 279.202 L 121.881 286.000 118.599 286.000 C 115.456 286.000 115.240 285.746 113.500 280.000 C 112.456 276.551 111.113 274.000 110.342 274.000 C 109.369 274.000 109.000 275.648 109.000 280.000 L 109.000 286.000 105.500 286.000 L 102.000 286.000 102.000 269.500 L 102.000 253.000 109.411 253.000 C 116.459 253.000 116.949 253.151 119.411 256.077 M 211.491 262.250 L 215.861 271.500 215.931 262.250 C 215.999 253.068 216.019 253.000 218.500 253.000 L 221.000 253.000 221.000 269.500 C 221.000 284.635 220.853 286.000 219.225 286.000 C 217.990 286.000 216.032 283.189 212.784 276.750 L 208.117 267.500 208.059 276.750 L 208.000 286.000 205.000 286.000 L 202.000 286.000 202.000 269.500 L 202.000 253.000 204.560 253.000 C 206.808 253.000 207.654 254.130 211.491 262.250 M 244.000 255.500 C 244.000 257.793 243.631 258.000 239.535 258.000 C 234.241 258.000 233.095 259.488 232.343 267.336 C 231.650 274.563 233.814 280.396 237.344 280.816 C 239.981 281.131 240.000 281.086 240.000 274.566 L 240.000 268.000 243.113 268.000 L 246.226 268.000 245.834 274.927 C 245.331 283.825 243.597 286.000 237.000 286.000 C 231.743 286.000 230.016 284.676 227.538 278.746 C 224.558 271.612 226.106 259.856 230.693 254.787 C 231.894 253.459 233.813 253.000 238.155 253.000 C 243.723 253.000 244.000 253.118 244.000 255.500 M 178.000 267.000 L 178.000 281.000 183.000 281.000 C 187.667 281.000 188.000 281.167 188.000 283.500 C 188.000 285.971 187.900 286.000 179.500 286.000 L 171.000 286.000 171.000 269.500 L 171.000 253.000 174.500 253.000 L 178.000 253.000 178.000 267.000 M 158.000 267.000 L 158.000 281.000 163.000 281.000 C 167.667 281.000 168.000 281.167 168.000 283.500 C 168.000 285.958 167.867 286.000 160.000 286.000 L 152.000 286.000 152.000 269.500 L 152.000 253.000 155.000 253.000 L 158.000 253.000 158.000 267.000 M 197.000 269.500 L 197.000 286.000 194.000 286.000 L 191.000 286.000 191.000 269.500 L 191.000 253.000 194.000 253.000 L 197.000 253.000 197.000 269.500 "/></g>
<g fill="#FCC572FF" stroke="#FCC572FF">
<path d="M 166.150 110.944 C 127.458 133.964 95.388 153.212 94.883 153.717 C 93.763 154.837 130.372 170.506 131.901 169.561 C 132.477 169.205 149.480 154.083 169.684 135.957 C 193.669 114.439 207.160 103.000 208.555 103.000 C 211.045 103.000 214.000 105.909 214.000 108.360 C 214.000 109.296 202.743 126.784 188.985 147.220 L 163.971 184.378 190.642 195.699 C 205.311 201.926 217.491 206.843 217.708 206.626 C 218.177 206.156 238.000 73.513 238.000 70.842 C 238.000 69.829 237.663 69.020 237.250 69.044 C 236.838 69.068 204.843 87.923 166.150 110.944 "/></g>
<g fill="#FCC572FF" stroke="#FCC572FF">
<path d="M 132.904 260.180 C 131.209 263.347 131.202 273.794 132.892 277.801 C 135.783 284.653 140.887 279.353 140.887 269.500 C 140.887 260.311 135.931 254.524 132.904 260.180 "/></g>
<g fill="#FCC572FF" stroke="#FCC572FF">
<path d="M 144.000 205.641 L 144.000 217.309 150.000 209.000 C 153.300 204.430 156.000 200.300 156.000 199.821 C 156.000 199.342 154.988 198.551 153.750 198.062 C 152.513 197.574 149.813 196.454 147.750 195.574 L 144.000 193.973 144.000 205.641 "/></g>
<g fill="#FCC572FF" stroke="#FCC572FF">
<path d="M 109.000 263.500 C 109.000 268.179 109.275 269.000 110.845 269.000 C 113.102 269.000 116.000 265.967 116.000 263.606 C 116.000 260.469 114.002 258.000 111.465 258.000 C 109.144 258.000 109.000 258.321 109.000 263.500 "/></g>
</svg>
